<svg xmlns="http://www.w3.org/2000/svg" width="178.908" height="84.768" viewBox="0 0 178.908 84.768">
  <g id="Purple_exhibitions_logo" data-name="Purple exhibitions logo" transform="translate(0 -0.003)">
    <path id="Path_10" data-name="Path 10" d="M47.771,24.8h5.337a8.135,8.135,0,0,1,1.676.168,4.419,4.419,0,0,1,1.635.9,3.617,3.617,0,0,1,1.133,1.459,4.852,4.852,0,0,1,.454,2.166,4.7,4.7,0,0,1-1.153,3.076,4.3,4.3,0,0,1-3.458,1.5H50v5.931H47.771ZM50,31.9h3.306a2.322,2.322,0,0,0,1.873-.8,2.637,2.637,0,0,0,.6-1.676,3.077,3.077,0,0,0-.241-1.288,1.919,1.919,0,0,0-.709-.742,2.742,2.742,0,0,0-1.6-.43H50Z" transform="translate(-7.324 -5.368)" fill="#fff"/>
    <path id="Path_11" data-name="Path 11" d="M60.154,24.8h2.229V34.6a3.192,3.192,0,0,0,.869,2.369,2.843,2.843,0,0,0,2.134.854,2.9,2.9,0,0,0,2.151-.854,3.223,3.223,0,0,0,.852-2.369V24.8h2.227V34.846a5.276,5.276,0,0,1-8.929,3.8,4.99,4.99,0,0,1-1.533-3.8Z" transform="translate(-7.324 -5.368)" fill="#fff"/>
    <path id="Path_12" data-name="Path 12" d="M73.871,24.8h5.754a4.45,4.45,0,0,1,3,1,4.112,4.112,0,0,1,1.459,3.242,4.228,4.228,0,0,1-2.842,4.21l3.407,6.744H82l-3.045-6.5H76.1v6.5H73.871ZM76.1,31.458h3.382a2.346,2.346,0,0,0,2.5-2.424,2.052,2.052,0,0,0-.738-1.724,2.509,2.509,0,0,0-1.641-.471H76.1Z" transform="translate(-7.324 -5.368)" fill="#fff"/>
    <path id="Path_13" data-name="Path 13" d="M86.891,24.8h5.336a8.149,8.149,0,0,1,1.676.168,4.478,4.478,0,0,1,1.638.9,3.656,3.656,0,0,1,1.13,1.459,4.837,4.837,0,0,1,.451,2.166,4.7,4.7,0,0,1-1.15,3.076,4.291,4.291,0,0,1-3.456,1.5h-3.4v5.931H86.891Zm2.227,7.1h3.31a2.318,2.318,0,0,0,1.872-.8,2.638,2.638,0,0,0,.6-1.676,3.046,3.046,0,0,0-.242-1.288,1.915,1.915,0,0,0-.707-.742,2.745,2.745,0,0,0-1.6-.43H89.118Z" transform="translate(-7.324 -5.368)" fill="#fff"/>
    <path id="Path_14" data-name="Path 14" d="M92.221,19.429h2.227v13.03h7.177v2.167h-9.4Z" fill="#fff"/>
    <path id="Path_15" data-name="Path 15" d="M104.094,19.429h9.4V21.6H106.32v4.345h6.126v2.042H106.32v4.474H113.5v2.167h-9.4Z" fill="#fff"/>
    <path id="Path_16" data-name="Path 16" d="M0,37.581H9.4V39.75H2.229V44.1H8.353V46.14H2.229v4.471H9.4v2.168H0Z" fill="#fff"/>
    <path id="Path_17" data-name="Path 17" d="M15.853,47.122l-3.231,5.657H10.111l4.5-7.788-4.219-7.41h2.525l2.935,5.27,2.938-5.27H21.3l-4.348,7.41L21.6,52.779H19.073Z" fill="#fff"/>
    <path id="Path_18" data-name="Path 18" d="M31.387,46.138H25.546v6.641H23.32v-15.2h2.226V44.1h5.841V37.581h2.229v15.2H31.387Z" fill="#fff"/>
    <rect id="Rectangle_75" data-name="Rectangle 75" width="2.229" height="15.198" transform="translate(37.15 37.581)" fill="#fff"/>
    <path id="Path_19" data-name="Path 19" d="M49.977,42.949h5.707a4.469,4.469,0,0,1,3.261,1.126,4.018,4.018,0,0,1,1.1,2.951,3.622,3.622,0,0,1-.432,1.792,2.834,2.834,0,0,1-.667.772,4.7,4.7,0,0,1-1.069.695v.045a2.975,2.975,0,0,1,1.822,1.3,4.381,4.381,0,0,1,.577,2.2,4.214,4.214,0,0,1-1.194,3.114,3.869,3.869,0,0,1-2.9,1.2H49.977Zm2.23,2.042v4.372H55.43a2.259,2.259,0,0,0,1.8-.664,2.106,2.106,0,0,0,.587-1.527,2.224,2.224,0,0,0-.587-1.563,2.469,2.469,0,0,0-1.8-.619Zm0,6.412v4.577h3.44a2.313,2.313,0,0,0,1.823-.7,2.362,2.362,0,0,0,.574-1.59,2.4,2.4,0,0,0-.574-1.61,2.371,2.371,0,0,0-1.823-.677Z" transform="translate(-7.324 -5.368)" fill="#fff"/>
    <rect id="Rectangle_76" data-name="Rectangle 76" width="2.227" height="15.198" transform="translate(55.674 37.581)" fill="#fff"/>
    <path id="Path_20" data-name="Path 20" d="M63.678,39.625H59.644V37.583h10.3v2.042H65.907V52.779H63.678Z" fill="#fff"/>
    <rect id="Rectangle_77" data-name="Rectangle 77" width="2.227" height="15.198" transform="translate(71.851 37.581)" fill="#fff"/>
    <path id="Path_21" data-name="Path 21" d="M84.175,50.549A26.5,26.5,0,0,1,84.326,47a4.251,4.251,0,0,1,.5-1.451,5.168,5.168,0,0,1,1.712-1.871,4.977,4.977,0,0,1,2.9-.85,5.05,5.05,0,0,1,4.6,2.733A3.583,3.583,0,0,1,94.548,47a30.242,30.242,0,0,1,.134,3.544,30.351,30.351,0,0,1-.134,3.524,3.6,3.6,0,0,1-.512,1.467A4.886,4.886,0,0,1,92.361,57.4a5.148,5.148,0,0,1-2.927.875A5.284,5.284,0,0,1,84.82,55.54q-.157-.343-.293-.656a4.571,4.571,0,0,1-.2-.811,26.49,26.49,0,0,1-.151-3.524m2.231,0a18.532,18.532,0,0,0,.159,3.04,2.938,2.938,0,0,0,2.862,2.391,2.685,2.685,0,0,0,1.387-.344,2.441,2.441,0,0,0,.891-.764,2.719,2.719,0,0,0,.6-1.283,19.81,19.81,0,0,0,.149-3.04,20.293,20.293,0,0,0-.149-3.062,2.713,2.713,0,0,0-.6-1.262,2.667,2.667,0,0,0-.891-.784,3.158,3.158,0,0,0-1.387-.324,3,3,0,0,0-1.355.324,2.776,2.776,0,0,0-.928.784,2.553,2.553,0,0,0-.579,1.262,18.984,18.984,0,0,0-.159,3.062" transform="translate(-7.324 -5.368)" fill="#fff"/>
    <path id="Path_22" data-name="Path 22" d="M90.372,37.581h2.1l6.665,10.8h.042v-10.8h2.231v15.2H99.3l-6.657-10.8H92.6v10.8H90.372Z" fill="#fff"/>
    <path id="Path_23" data-name="Path 23" d="M112.482,54.467a6.344,6.344,0,0,0,4.182,1.512q2.872-.041,2.91-2.118c.013-1.133-.625-1.816-1.918-2.043l-1.951-.283a4.754,4.754,0,0,1-2.886-1.449,4.122,4.122,0,0,1-1.023-2.817,4.236,4.236,0,0,1,1.284-3.214,4.91,4.91,0,0,1,3.52-1.231,8.1,8.1,0,0,1,4.771,1.571l-1.242,1.892a6.6,6.6,0,0,0-3.646-1.17,2.718,2.718,0,0,0-1.717.532,2.011,2.011,0,0,0-.738,1.648,1.711,1.711,0,0,0,.494,1.19,2.811,2.811,0,0,0,1.587.75c.4.071.956.149,1.655.238a4.534,4.534,0,0,1,3.058,1.535,4.391,4.391,0,0,1,.98,2.836q-.113,4.363-5.165,4.424a8.205,8.205,0,0,1-5.617-2.074Z" transform="translate(-7.324 -5.368)" fill="#fff"/>
    <path id="Path_24" data-name="Path 24" d="M11.658,55.26h9.4v2.168H13.886v4.346h6.123v2.042H13.886v4.472H21.06v2.169h-9.4Z" fill="#fff"/>
    <path id="Path_25" data-name="Path 25" d="M27.511,64.8,24.28,70.457H21.768l4.5-7.786-4.22-7.411h2.526l2.936,5.27,2.936-5.27h2.514l-4.348,7.411,4.64,7.786H30.73Z" fill="#fff"/>
    <path id="Path_26" data-name="Path 26" d="M34.977,55.26h9.4v2.168H37.2v4.346h6.125v2.042H37.2v4.472H44.38v2.169h-9.4Z" fill="#fff"/>
    <path id="Path_27" data-name="Path 27" d="M64.1,71.578a5.709,5.709,0,0,1-1.848,3.247,5.154,5.154,0,0,1-3.325,1.125,5.07,5.07,0,0,1-2.895-.875,5.01,5.01,0,0,1-1.715-1.856c-.107-.23-.2-.449-.293-.658a4.2,4.2,0,0,1-.2-.813,25.669,25.669,0,0,1-.155-3.522,25.658,25.658,0,0,1,.155-3.545,4.225,4.225,0,0,1,.493-1.447,5.207,5.207,0,0,1,1.715-1.879,4.938,4.938,0,0,1,2.9-.852A4.882,4.882,0,0,1,62.4,61.8,5.75,5.75,0,0,1,64.1,65H61.736a3.4,3.4,0,0,0-.992-1.566,2.866,2.866,0,0,0-1.82-.636,2.958,2.958,0,0,0-1.357.324,2.8,2.8,0,0,0-.93.782,2.6,2.6,0,0,0-.577,1.264,19.239,19.239,0,0,0-.16,3.061,18.617,18.617,0,0,0,.161,3.04,2.837,2.837,0,0,0,1.511,2.047,2.533,2.533,0,0,0,1.352.343,3,3,0,0,0,2.812-2.078Z" transform="translate(-7.324 -5.368)" fill="#fff"/>
    <path id="Path_28" data-name="Path 28" d="M65.772,60.628H68v9.806A3.179,3.179,0,0,0,68.87,72.8,2.848,2.848,0,0,0,71,73.656a2.9,2.9,0,0,0,2.151-.855,3.226,3.226,0,0,0,.851-2.368V60.628h2.226V70.676a5.274,5.274,0,0,1-8.926,3.805,5.016,5.016,0,0,1-1.536-3.8Z" transform="translate(-7.324 -5.368)" fill="#fff"/>
    <path id="Path_29" data-name="Path 29" d="M74.669,57.3H70.632V55.26h10.3V57.3h-4.04V70.457H74.669Z" fill="#fff"/>
    <rect id="Rectangle_78" data-name="Rectangle 78" width="2.23" height="15.197" transform="translate(82.837 55.26)" fill="#fff"/>
    <path id="Path_30" data-name="Path 30" d="M95.166,68.226a25.823,25.823,0,0,1,.153-3.551,4.246,4.246,0,0,1,.5-1.453,5.192,5.192,0,0,1,1.713-1.871,4.963,4.963,0,0,1,2.9-.848,5.018,5.018,0,0,1,2.927.852,5.076,5.076,0,0,1,1.676,1.879,3.593,3.593,0,0,1,.516,1.449,30.689,30.689,0,0,1,.131,3.543,30.846,30.846,0,0,1-.131,3.524,3.605,3.605,0,0,1-.516,1.467,4.9,4.9,0,0,1-1.676,1.858,5.143,5.143,0,0,1-2.927.875,5.291,5.291,0,0,1-4.614-2.733c-.105-.229-.2-.447-.29-.657a4.133,4.133,0,0,1-.2-.81,25.852,25.852,0,0,1-.153-3.524m2.231,0a18.359,18.359,0,0,0,.161,3.04,2.938,2.938,0,0,0,2.862,2.39,2.677,2.677,0,0,0,1.385-.343,2.433,2.433,0,0,0,.89-.764,2.693,2.693,0,0,0,.6-1.283,19.647,19.647,0,0,0,.15-3.04,20.134,20.134,0,0,0-.15-3.062,3.2,3.2,0,0,0-1.488-2.045,3.164,3.164,0,0,0-1.385-.324,3,3,0,0,0-1.354.324,2.814,2.814,0,0,0-.929.783,2.539,2.539,0,0,0-.578,1.262,18.812,18.812,0,0,0-.161,3.062" transform="translate(-7.324 -5.368)" fill="#fff"/>
    <path id="Path_31" data-name="Path 31" d="M101.363,55.26h2.1l6.667,10.8h.038V55.26H112.4v15.2h-2.114l-6.655-10.8h-.04v10.8h-2.227Z" fill="#fff"/>
    <path id="Path_32" data-name="Path 32" d="M26.162,87.343a4.017,4.017,0,0,1-.6-.037,1.685,1.685,0,0,1-.4-.109.886.886,0,0,1-.257-.159.969.969,0,0,1-.172-.186v.353a3.551,3.551,0,0,1-.208,1.281,2.175,2.175,0,0,1-.605.872,2.465,2.465,0,0,1-.975.5,5,5,0,0,1-1.323.159,3.541,3.541,0,0,1-2.334-.657,2.541,2.541,0,0,1-.783-2.065V85.549h.962v1.56a2.787,2.787,0,0,0,.135.923,1.423,1.423,0,0,0,.407.607,1.592,1.592,0,0,0,.679.336,3.811,3.811,0,0,0,.957.105,5.179,5.179,0,0,0,.976-.08,1.444,1.444,0,0,0,.658-.3,1.181,1.181,0,0,0,.371-.577,3.106,3.106,0,0,0,.117-.931V83.542h.966v1.613a2.864,2.864,0,0,0,.04.517.9.9,0,0,0,.161.392.762.762,0,0,0,.338.251,1.583,1.583,0,0,0,.574.091h.148a7.126,7.126,0,0,1,.359-.853,6.213,6.213,0,0,1,.5-.825,5.618,5.618,0,0,1,.638-.745,4.543,4.543,0,0,1,.77-.608,4.008,4.008,0,0,1,.883-.409,3.277,3.277,0,0,1,1-.148,2.8,2.8,0,0,1,1.012.171,2.093,2.093,0,0,1,.758.514,2.186,2.186,0,0,1,.47.818,3.4,3.4,0,0,1,.164,1.107v1.915Zm5.423-.938v-.84a3.016,3.016,0,0,0-.087-.755,1.439,1.439,0,0,0-.277-.571,1.267,1.267,0,0,0-.492-.364A1.86,1.86,0,0,0,30,83.748a2.216,2.216,0,0,0-.7.111,2.779,2.779,0,0,0-.626.3,3.444,3.444,0,0,0-.559.45,4.661,4.661,0,0,0-.475.549,5.014,5.014,0,0,0-.657,1.244Zm-2.169-5.337a.56.56,0,0,1,.049-.231.57.57,0,0,1,.131-.191.6.6,0,0,1,.19-.129.589.589,0,0,1,.236-.047.568.568,0,0,1,.231.047.655.655,0,0,1,.191.129.6.6,0,0,1,.129.657.6.6,0,0,1-.32.32.57.57,0,0,1-.231.049.59.59,0,0,1-.236-.049.615.615,0,0,1-.321-.32.56.56,0,0,1-.049-.234" transform="translate(-7.324 -5.368)" fill="#fff"/>
    <path id="Path_33" data-name="Path 33" d="M34.949,82.978h.964v4.033a8.909,8.909,0,0,1-.094,1.4,2.312,2.312,0,0,1-.328.93,1.321,1.321,0,0,1-.653.52,2.909,2.909,0,0,1-1.052.16h-.34V89.08h.377a1.288,1.288,0,0,0,.631-.129.757.757,0,0,0,.336-.393,2.243,2.243,0,0,0,.135-.679c.015-.275.024-.607.024-.988Z" transform="translate(-7.324 -5.368)" fill="#fff"/>
    <path id="Path_34" data-name="Path 34" d="M39.706,86.857a.528.528,0,0,1-.1.383.489.489,0,0,1-.35.1h-.166a2.613,2.613,0,0,1-.661-.075,1.219,1.219,0,0,1-.512-.256,1.206,1.206,0,0,1-.332-.486,2.048,2.048,0,0,1-.119-.75v-6.53h.964v6.284a2.061,2.061,0,0,0,.033.4.547.547,0,0,0,.117.269.485.485,0,0,0,.246.153,1.362,1.362,0,0,0,.415.048h.022a.387.387,0,0,1,.447.455" transform="translate(-7.324 -5.368)" fill="#fff"/>
    <path id="Path_35" data-name="Path 35" d="M39.254,87.346a.471.471,0,0,1-.344-.11.461.461,0,0,1-.109-.346.51.51,0,0,1,.108-.384.472.472,0,0,1,.345-.1h.613a6.563,6.563,0,0,0,.856-.057,5.057,5.057,0,0,0,.805-.182l-1.46-1.611a2.138,2.138,0,0,1,.086-.26,2.464,2.464,0,0,1,.114-.268c.04-.09.082-.167.124-.241a.83.83,0,0,1,.131-.171,2.62,2.62,0,0,1,.895-.579,3.075,3.075,0,0,1,1.143-.215,2.861,2.861,0,0,1,.877.12,2.04,2.04,0,0,1,.626.32,1.341,1.341,0,0,1,.375.45,1.146,1.146,0,0,1,.122.517,1.861,1.861,0,0,1-.1.6,2.442,2.442,0,0,1-.281.563,3.206,3.206,0,0,1-.428.512,4.39,4.39,0,0,1-.549.453,1.407,1.407,0,0,0,.268.037c.094,0,.195.008.3.008h1.441a.492.492,0,0,1,.345.107.469.469,0,0,1,.108.348.528.528,0,0,1-.1.383.491.491,0,0,1-.35.106h-1.75a2.344,2.344,0,0,1-.633-.086,1.676,1.676,0,0,1-.625-.37,7.072,7.072,0,0,1-1.113.332,5.769,5.769,0,0,1-1.183.124ZM42.5,83.732a2.171,2.171,0,0,0-.444.046,2.326,2.326,0,0,0-.411.13,2.249,2.249,0,0,0-.357.2,1.853,1.853,0,0,0-.285.251l1.385,1.468a3.469,3.469,0,0,0,.5-.3,2.116,2.116,0,0,0,.38-.348,1.823,1.823,0,0,0,.251-.387,1.052,1.052,0,0,0,.085-.41.485.485,0,0,0-.067-.245.667.667,0,0,0-.2-.209,1.239,1.239,0,0,0-.345-.144,2.052,2.052,0,0,0-.486-.051" transform="translate(-7.324 -5.368)" fill="#fff"/>
    <path id="Path_36" data-name="Path 36" d="M50.476,86.58a1.718,1.718,0,0,1-.671.674,2.214,2.214,0,0,1-1.078.24,2.92,2.92,0,0,1-.465-.037,2.607,2.607,0,0,1-.5-.127,3.991,3.991,0,0,1-.54-.246,4.79,4.79,0,0,1-.6-.39,1.685,1.685,0,0,1-.294.357,1.071,1.071,0,0,1-.3.2,1.04,1.04,0,0,1-.322.077,3.015,3.015,0,0,1-.375.018h-.122a.484.484,0,0,1-.344-.107.468.468,0,0,1-.109-.344.522.522,0,0,1,.107-.386.488.488,0,0,1,.346-.1h.1a1.161,1.161,0,0,0,.272-.036.641.641,0,0,0,.266-.141,1.081,1.081,0,0,0,.254-.313,2.231,2.231,0,0,0,.222-.546,4.309,4.309,0,0,1,.486-1.13,2.833,2.833,0,0,1,.611-.7,1.914,1.914,0,0,1,.669-.347,2.536,2.536,0,0,1,.648-.1,2.06,2.06,0,0,1,.814.155,1.809,1.809,0,0,1,.642.433,2.067,2.067,0,0,1,.418.679,2.49,2.49,0,0,1,.148.874c0,.074,0,.144,0,.215s-.012.14-.021.211a1.194,1.194,0,0,0,.321.547.686.686,0,0,0,.473.192.466.466,0,0,1,.341.106.474.474,0,0,1,.107.344.535.535,0,0,1-.105.385.468.468,0,0,1-.343.1,1.068,1.068,0,0,1-.589-.177,1.371,1.371,0,0,1-.477-.586M49.8,85.34a1.873,1.873,0,0,0-.072-.538,1.175,1.175,0,0,0-.213-.409.968.968,0,0,0-.348-.268,1.2,1.2,0,0,0-.478-.093,1.283,1.283,0,0,0-.506.106,1.309,1.309,0,0,0-.444.34,2.267,2.267,0,0,0-.371.586,4.614,4.614,0,0,0-.288.848,2.972,2.972,0,0,0,.795.459,2.2,2.2,0,0,0,.8.157,1.162,1.162,0,0,0,.825-.275,1.2,1.2,0,0,0,.3-.914" transform="translate(-7.324 -5.368)" fill="#fff"/>
    <path id="Path_37" data-name="Path 37" d="M51.539,87.343a.471.471,0,0,1-.343-.107.459.459,0,0,1-.109-.346.505.505,0,0,1,.109-.384.472.472,0,0,1,.343-.1H52.93V79.245H53.9v8.1Z" transform="translate(-7.324 -5.368)" fill="#fff"/>
    <rect id="Rectangle_79" data-name="Rectangle 79" width="0.966" height="8.098" transform="translate(48.123 73.877)" fill="#fff"/>
    <path id="Path_38" data-name="Path 38" d="M69.784,87.343H62.909a5.823,5.823,0,0,1-1.1-.087,1.718,1.718,0,0,1-.708-.29,1.044,1.044,0,0,1-.375-.512,2.335,2.335,0,0,1-.113-.767V83.932h.964v1.418a1.5,1.5,0,0,0,.082.557.6.6,0,0,0,.291.318,1.514,1.514,0,0,0,.558.145c.237.023.534.033.9.033H68.82V82.978h.965Zm-5.856-5.6a.581.581,0,0,1,.046-.231.57.57,0,0,1,.132-.189.656.656,0,0,1,.189-.133.59.59,0,0,1,.236-.045.578.578,0,0,1,.232.045.651.651,0,0,1,.191.133.564.564,0,0,1,.13.189.582.582,0,0,1,.047.231.6.6,0,0,1-.177.426.61.61,0,0,1-.191.129.544.544,0,0,1-.232.047A.555.555,0,0,1,64.3,82.3a.612.612,0,0,1-.189-.129.58.58,0,0,1-.132-.192.574.574,0,0,1-.046-.234m1.473,0a.565.565,0,0,1,.048-.231.572.572,0,0,1,.128-.189.647.647,0,0,1,.194-.133.59.59,0,0,1,.236-.045.583.583,0,0,1,.231.045.65.65,0,0,1,.191.133.575.575,0,0,1,.129.189.563.563,0,0,1,.046.231.558.558,0,0,1-.046.234.586.586,0,0,1-.129.192.608.608,0,0,1-.191.129.548.548,0,0,1-.231.047.555.555,0,0,1-.236-.047.606.606,0,0,1-.194-.129.584.584,0,0,1-.128-.192.558.558,0,0,1-.048-.234" transform="translate(-7.324 -5.368)" fill="#fff"/>
    <path id="Path_39" data-name="Path 39" d="M73.579,86.857a.528.528,0,0,1-.1.383.486.486,0,0,1-.35.1H72.96a2.6,2.6,0,0,1-.66-.075,1.213,1.213,0,0,1-.512-.256,1.185,1.185,0,0,1-.332-.486,2.044,2.044,0,0,1-.122-.75v-6.53H72.3v6.284a2.259,2.259,0,0,0,.031.4.557.557,0,0,0,.117.269.477.477,0,0,0,.25.153,1.339,1.339,0,0,0,.41.048h.025a.388.388,0,0,1,.447.455" transform="translate(-7.324 -5.368)" fill="#fff"/>
    <path id="Path_40" data-name="Path 40" d="M77.812,87.343v.045a1.452,1.452,0,0,1,.183.3,1.584,1.584,0,0,1,.1.285,1.518,1.518,0,0,1,.047.264c.007.084.011.163.011.236a1.816,1.816,0,0,1-.111.632,1.455,1.455,0,0,1-.334.531,1.611,1.611,0,0,1-.555.366,2.076,2.076,0,0,1-.779.137,2.365,2.365,0,0,1-.989-.182,1.682,1.682,0,0,1-.642-.48,1.915,1.915,0,0,1-.343-.708,3.581,3.581,0,0,1-.1-.852v-.571H73.125a.468.468,0,0,1-.343-.107.46.46,0,0,1-.109-.346.52.52,0,0,1,.106-.384.481.481,0,0,1,.346-.1H74.3v-.659a4.827,4.827,0,0,1,.145-1.238,2.715,2.715,0,0,1,.416-.922,1.86,1.86,0,0,1,.658-.571,1.948,1.948,0,0,1,.883-.2,1.772,1.772,0,0,1,.844.18,1.655,1.655,0,0,1,.547.454,1.827,1.827,0,0,1,.3.6,2.291,2.291,0,0,1,.092.6,2.534,2.534,0,0,1-.056.531,2.229,2.229,0,0,1-.153.453,2.127,2.127,0,0,1-.23.392,2.933,2.933,0,0,1-.287.335V86.4H79a.481.481,0,0,1,.343.107.469.469,0,0,1,.111.348.518.518,0,0,1-.106.383.489.489,0,0,1-.348.1ZM75.231,86.4h.512a1.457,1.457,0,0,0,1.213-.57,1.724,1.724,0,0,0,.264-.52A1.909,1.909,0,0,0,77.3,84.8a1.369,1.369,0,0,0-.078-.472.966.966,0,0,0-.2-.332.777.777,0,0,0-.29-.2.9.9,0,0,0-.343-.064.947.947,0,0,0-.858.5,2.748,2.748,0,0,0-.3,1.423Zm0,.941v.217a5.328,5.328,0,0,0,.04.666,1.62,1.62,0,0,0,.165.538.905.905,0,0,0,.347.355,1.176,1.176,0,0,0,.585.13.959.959,0,0,0,.706-.236.9.9,0,0,0,.235-.66,1.308,1.308,0,0,0-.012-.176.946.946,0,0,0-.062-.215.991.991,0,0,0-.125-.221.891.891,0,0,0-.219-.2,1.09,1.09,0,0,0-.337-.143,1.7,1.7,0,0,0-.48-.058Z" transform="translate(-7.324 -5.368)" fill="#fff"/>
    <path id="Path_41" data-name="Path 41" d="M83.553,86.4a3.42,3.42,0,0,0-.194-1.225,2.109,2.109,0,0,0-.516-.812,1.944,1.944,0,0,0-.769-.454,3.061,3.061,0,0,0-.938-.14c-.113,0-.227,0-.348.015s-.237.027-.351.045-.223.041-.328.065-.2.046-.277.067v-.907c.149-.047.351-.1.6-.155a3.787,3.787,0,0,1,.822-.083,3.375,3.375,0,0,1,1.483.3,2.818,2.818,0,0,1,1.022.8,3.248,3.248,0,0,1,.583,1.177,5.212,5.212,0,0,1,.186,1.423v.832H79a.395.395,0,0,1-.454-.456.518.518,0,0,1,.108-.384A.475.475,0,0,1,79,86.4Zm-2.761,2.643a.576.576,0,0,1,.048-.232.6.6,0,0,1,.13-.192.621.621,0,0,1,.19-.129.6.6,0,0,1,.237-.047.58.58,0,0,1,.23.047.652.652,0,0,1,.191.129.574.574,0,0,1,.128.192.544.544,0,0,1,.048.232.528.528,0,0,1-.048.234.567.567,0,0,1-.128.192.63.63,0,0,1-.191.128.549.549,0,0,1-.23.049.564.564,0,0,1-.237-.049.6.6,0,0,1-.19-.128.588.588,0,0,1-.13-.192.558.558,0,0,1-.048-.234" transform="translate(-7.324 -5.368)" fill="#fff"/>
    <rect id="Rectangle_80" data-name="Rectangle 80" width="0.963" height="8.098" transform="translate(78.591 73.877)" fill="#fff"/>
    <path id="Path_42" data-name="Path 42" d="M92.683,87.346a3.9,3.9,0,0,1-.249,1.2,2.076,2.076,0,0,1-.6.83,2.529,2.529,0,0,1-.985.488,5.565,5.565,0,0,1-1.421.157h-.477V89.08H89.3a5.341,5.341,0,0,0,1.132-.1,1.962,1.962,0,0,0,.751-.312,1.272,1.272,0,0,0,.422-.54,2.233,2.233,0,0,0,.143-.779H90.469a3.042,3.042,0,0,1-.851-.117,1.87,1.87,0,0,1-.683-.365,1.652,1.652,0,0,1-.454-.644,2.421,2.421,0,0,1-.164-.947,2.809,2.809,0,0,1,.151-.911,2.447,2.447,0,0,1,.443-.784,2.18,2.18,0,0,1,.705-.55,2.063,2.063,0,0,1,.944-.209,2.174,2.174,0,0,1,1,.209,1.728,1.728,0,0,1,.66.594,2.72,2.72,0,0,1,.367.934,6.129,6.129,0,0,1,.113,1.217v.634h.8a.479.479,0,0,1,.343.1.472.472,0,0,1,.111.348.527.527,0,0,1-.107.383.484.484,0,0,1-.347.106Zm-3.46-2.169a1.187,1.187,0,0,0,.341.9,1.34,1.34,0,0,0,.974.329h1.214v-.85a4.058,4.058,0,0,0-.066-.756,1.713,1.713,0,0,0-.217-.583,1.031,1.031,0,0,0-.388-.371,1.23,1.23,0,0,0-.587-.13,1.141,1.141,0,0,0-.956.469,1.44,1.44,0,0,0-.235.466,1.864,1.864,0,0,0-.079.527" transform="translate(-7.324 -5.368)" fill="#fff"/>
    <path id="Path_43" data-name="Path 43" d="M93.5,87.343a.473.473,0,0,1-.345-.107.463.463,0,0,1-.109-.346.514.514,0,0,1,.108-.384.476.476,0,0,1,.346-.1h1.39V79.245h.964v8.1Z" transform="translate(-7.324 -5.368)" fill="#fff"/>
    <path id="Path_44" data-name="Path 44" d="M106.287,87.343a3.335,3.335,0,0,1-.238,1.218,2.15,2.15,0,0,1-.613.833,2.551,2.551,0,0,1-.964.471,5.207,5.207,0,0,1-1.294.149,4.091,4.091,0,0,1-1.358-.2,2.608,2.608,0,0,1-.975-.588,2.457,2.457,0,0,1-.59-.929,3.658,3.658,0,0,1-.194-1.226V85.549h.963v1.325a2.3,2.3,0,0,0,.537,1.655,2.188,2.188,0,0,0,1.642.556,3.362,3.362,0,0,0,.974-.121,1.5,1.5,0,0,0,.657-.373,1.466,1.466,0,0,0,.373-.659,3.468,3.468,0,0,0,.116-.969V79.245h.964V86.4H107.3a.486.486,0,0,1,.345.107.469.469,0,0,1,.111.348.517.517,0,0,1-.108.383.487.487,0,0,1-.348.1Z" transform="translate(-7.324 -5.368)" fill="#fff"/>
    <path id="Path_45" data-name="Path 45" d="M107.3,87.346a.469.469,0,0,1-.344-.11.462.462,0,0,1-.111-.346.537.537,0,0,1,.106-.384.5.5,0,0,1,.349-.1h1.734V82.978H110v4.368Zm1.439,1.687a.552.552,0,0,1,.048-.231.575.575,0,0,1,.13-.189.552.552,0,0,1,.192-.131.593.593,0,0,1,.656.131.543.543,0,0,1,.129.189.536.536,0,0,1,.047.231.548.548,0,0,1-.047.237.567.567,0,0,1-.129.19.557.557,0,0,1-.191.128.581.581,0,0,1-.464,0,.531.531,0,0,1-.192-.128.6.6,0,0,1-.13-.19.563.563,0,0,1-.048-.237" transform="translate(-7.324 -5.368)" fill="#fff"/>
    <path id="Path_46" data-name="Path 46" d="M114.491,87.343a1.36,1.36,0,0,1-.322-.038,1.482,1.482,0,0,1-.3-.1,1.252,1.252,0,0,1-.244-.155.593.593,0,0,1-.164-.2,8.881,8.881,0,0,1-.1,1.377,2.851,2.851,0,0,1-.332.99,1.509,1.509,0,0,1-.651.6,2.406,2.406,0,0,1-1.049.2H111v-.94h.377a1.353,1.353,0,0,0,.653-.127.741.741,0,0,0,.34-.393,2.155,2.155,0,0,0,.124-.68c.014-.274.021-.6.021-.987V82.978h.964v2.179a2.232,2.232,0,0,0,.052.515,1.122,1.122,0,0,0,.174.392.8.8,0,0,0,.314.251,1.159,1.159,0,0,0,.475.087.487.487,0,0,1,.346.107.473.473,0,0,1,.111.348.518.518,0,0,1-.106.383.5.5,0,0,1-.351.1" transform="translate(-7.324 -5.368)" fill="#fff"/>
    <path id="Path_47" data-name="Path 47" d="M114.491,87.343a.487.487,0,0,1-.343-.107.466.466,0,0,1-.109-.347.508.508,0,0,1,.109-.383.467.467,0,0,1,.343-.1h.856a2.816,2.816,0,0,0,.375-.022.649.649,0,0,0,.291-.106.517.517,0,0,0,.185-.25,1.247,1.247,0,0,0,.067-.448v-2.6h.972v2.179a2.73,2.73,0,0,0,.049.515,1.059,1.059,0,0,0,.164.392.782.782,0,0,0,.313.251,1.245,1.245,0,0,0,.5.087.477.477,0,0,1,.341.107.465.465,0,0,1,.112.348.526.526,0,0,1-.109.385.488.488,0,0,1-.344.1,1.351,1.351,0,0,1-.368-.048,1.407,1.407,0,0,1-.34-.131,1.261,1.261,0,0,1-.272-.2.9.9,0,0,1-.186-.254.974.974,0,0,1-.285.328,1.488,1.488,0,0,1-.375.195,1.773,1.773,0,0,1-.412.09,3.461,3.461,0,0,1-.4.022Zm.9,1.714a.562.562,0,0,1,.046-.231.619.619,0,0,1,.129-.191.643.643,0,0,1,.194-.129.528.528,0,0,1,.233-.048.535.535,0,0,1,.234.048.629.629,0,0,1,.19.129.641.641,0,0,1,.13.191.583.583,0,0,1,0,.465.6.6,0,0,1-.13.191.628.628,0,0,1-.19.129.582.582,0,0,1-.234.048.574.574,0,0,1-.233-.048.643.643,0,0,1-.194-.129.586.586,0,0,1-.129-.191.561.561,0,0,1-.046-.235m1.472,0a.583.583,0,0,1,.18-.422.6.6,0,0,1,.187-.129.545.545,0,0,1,.238-.048.507.507,0,0,1,.229.048.592.592,0,0,1,.323.32.608.608,0,0,1,0,.465.62.62,0,0,1-.129.191.659.659,0,0,1-.195.129.551.551,0,0,1-.229.048.592.592,0,0,1-.238-.048.6.6,0,0,1-.187-.129.552.552,0,0,1-.133-.191.579.579,0,0,1-.047-.235" transform="translate(-7.324 -5.368)" fill="#fff"/>
    <path id="Path_48" data-name="Path 48" d="M118.262,87.346a.472.472,0,0,1-.345-.11.462.462,0,0,1-.111-.346.526.526,0,0,1,.108-.384.492.492,0,0,1,.348-.1H120V82.978h.962v4.368Zm1.44,1.687a.536.536,0,0,1,.048-.231.5.5,0,0,1,.129-.189.575.575,0,0,1,.189-.131.608.608,0,0,1,.237-.047.593.593,0,0,1,.231.047.6.6,0,0,1,.191.131.571.571,0,0,1,.129.189.551.551,0,0,1,.046.231.563.563,0,0,1-.046.237.6.6,0,0,1-.129.19.578.578,0,0,1-.191.128.527.527,0,0,1-.231.048.541.541,0,0,1-.237-.048.551.551,0,0,1-.189-.128.525.525,0,0,1-.129-.19.547.547,0,0,1-.048-.237" transform="translate(-7.324 -5.368)" fill="#fff"/>
    <path id="Path_49" data-name="Path 49" d="M137.017,10.493a5.123,5.123,0,1,0-5.124,5.124,5.123,5.123,0,0,0,5.124-5.124" transform="translate(-7.324 -5.368)" fill="#fff"/>
    <path id="Path_50" data-name="Path 50" d="M150.039,10.493a5.123,5.123,0,1,0-5.123,5.124,5.122,5.122,0,0,0,5.123-5.124" transform="translate(-7.324 -5.368)" fill="#fff"/>
    <path id="Path_51" data-name="Path 51" d="M163.063,10.493a5.123,5.123,0,1,0-5.124,5.124,5.123,5.123,0,0,0,5.124-5.124" transform="translate(-7.324 -5.368)" fill="#fff"/>
    <path id="Path_52" data-name="Path 52" d="M172.951,10.493a1.989,1.989,0,1,0-1.989,1.988,1.989,1.989,0,0,0,1.989-1.988" transform="translate(-7.324 -5.368)" fill="#fff"/>
    <path id="Path_53" data-name="Path 53" d="M137.017,22.875A5.123,5.123,0,1,0,131.893,28a5.123,5.123,0,0,0,5.124-5.125" transform="translate(-7.324 -5.368)" fill="#fff"/>
    <path id="Path_54" data-name="Path 54" d="M149.187,22.875a4.269,4.269,0,1,0-4.27,4.271,4.269,4.269,0,0,0,4.27-4.271" transform="translate(-7.324 -5.368)" fill="#fff"/>
    <path id="Path_55" data-name="Path 55" d="M162.216,22.875a4.277,4.277,0,1,0-4.277,4.277,4.277,4.277,0,0,0,4.277-4.277" transform="translate(-7.324 -5.368)" fill="#fff"/>
    <path id="Path_56" data-name="Path 56" d="M166.162,22.875a4.8,4.8,0,1,0,4.8-4.8,4.8,4.8,0,0,0-4.8,4.8" transform="translate(-7.324 -5.368)" fill="#fff"/>
    <path id="Path_57" data-name="Path 57" d="M137.017,35.257a5.123,5.123,0,1,0-5.124,5.124,5.123,5.123,0,0,0,5.124-5.124" transform="translate(-7.324 -5.368)" fill="#fff"/>
    <path id="Path_58" data-name="Path 58" d="M148.546,35.257a3.632,3.632,0,1,0-3.63,3.63,3.632,3.632,0,0,0,3.63-3.63" transform="translate(-7.324 -5.368)" fill="#fff"/>
    <path id="Path_59" data-name="Path 59" d="M162.181,35.257a4.242,4.242,0,1,0-4.242,4.243,4.241,4.241,0,0,0,4.242-4.243" transform="translate(-7.324 -5.368)" fill="#fff"/>
    <path id="Path_60" data-name="Path 60" d="M166.12,35.257a4.842,4.842,0,1,0,4.841-4.84,4.842,4.842,0,0,0-4.841,4.84" transform="translate(-7.324 -5.368)" fill="#fff"/>
    <path id="Path_61" data-name="Path 61" d="M186.232,35.257a2.247,2.247,0,1,0-2.249,2.248,2.247,2.247,0,0,0,2.249-2.248" transform="translate(-7.324 -5.368)" fill="#fff"/>
    <path id="Path_62" data-name="Path 62" d="M137.017,47.64a5.123,5.123,0,1,0-5.124,5.124,5.123,5.123,0,0,0,5.124-5.124" transform="translate(-7.324 -5.368)" fill="#fff"/>
    <path id="Path_63" data-name="Path 63" d="M148.459,47.639a3.543,3.543,0,1,0-3.542,3.543,3.543,3.543,0,0,0,3.542-3.543" transform="translate(-7.324 -5.368)" fill="#fff"/>
    <path id="Path_64" data-name="Path 64" d="M162.04,47.639a4.1,4.1,0,1,0-4.1,4.1,4.1,4.1,0,0,0,4.1-4.1" transform="translate(-7.324 -5.368)" fill="#fff"/>
    <path id="Path_65" data-name="Path 65" d="M173.839,47.639a2.877,2.877,0,1,0-2.876,2.877,2.877,2.877,0,0,0,2.876-2.877" transform="translate(-7.324 -5.368)" fill="#fff"/>
    <path id="Path_66" data-name="Path 66" d="M137.017,60.022a5.123,5.123,0,1,0-5.124,5.124,5.123,5.123,0,0,0,5.124-5.124" transform="translate(-7.324 -5.368)" fill="#fff"/>
    <path id="Path_67" data-name="Path 67" d="M142.288,60.022a2.63,2.63,0,1,0,2.628-2.628,2.63,2.63,0,0,0-2.628,2.628" transform="translate(-7.324 -5.368)" fill="#fff"/>
    <path id="Path_68" data-name="Path 68" d="M160.1,60.022a2.158,2.158,0,1,0-2.157,2.157,2.158,2.158,0,0,0,2.157-2.157" transform="translate(-7.324 -5.368)" fill="#fff"/>
    <path id="Path_69" data-name="Path 69" d="M137.017,72.4a5.123,5.123,0,1,0-5.124,5.124,5.123,5.123,0,0,0,5.124-5.124" transform="translate(-7.324 -5.368)" fill="#fff"/>
    <path id="Path_70" data-name="Path 70" d="M147.793,72.4a2.877,2.877,0,1,0-2.877,2.877,2.876,2.876,0,0,0,2.877-2.877" transform="translate(-7.324 -5.368)" fill="#fff"/>
    <path id="Path_71" data-name="Path 71" d="M137.017,84.787a5.123,5.123,0,1,0-5.124,5.124,5.123,5.123,0,0,0,5.124-5.124" transform="translate(-7.324 -5.368)" fill="#fff"/>
    <path id="Path_72" data-name="Path 72" d="M146.037,84.787a1.12,1.12,0,1,0-1.12,1.119,1.12,1.12,0,0,0,1.12-1.119" transform="translate(-7.324 -5.368)" fill="#fff"/>
    <path id="Path_73" data-name="Path 73" d="M185.1,22.891a1.119,1.119,0,1,0-1.121,1.12,1.119,1.119,0,0,0,1.121-1.12" transform="translate(-7.324 -5.368)" fill="#fff"/>
  </g>
</svg>
