<svg xmlns="http://www.w3.org/2000/svg" width="104.493" height="49.509" viewBox="0 0 104.493 49.509">
  <g id="Purple_exhibitions_logo" data-name="Purple exhibitions logo" transform="translate(0 -0.003)">
    <path id="Path_10" data-name="Path 10" d="M47.771,24.8h3.117a4.751,4.751,0,0,1,.979.1,2.581,2.581,0,0,1,.955.523,2.112,2.112,0,0,1,.662.852,2.834,2.834,0,0,1,.265,1.265,2.744,2.744,0,0,1-.673,1.8,2.51,2.51,0,0,1-2.019.876H49.073v3.464h-1.3Zm1.3,4.147H51a1.356,1.356,0,0,0,1.094-.465,1.54,1.54,0,0,0,.348-.979,1.8,1.8,0,0,0-.141-.752,1.121,1.121,0,0,0-.414-.433,1.6,1.6,0,0,0-.935-.251H49.073Z" transform="translate(-24.147 -13.448)" fill="#9ea1a2"/>
    <path id="Path_11" data-name="Path 11" d="M60.153,24.8h1.3v5.728a1.864,1.864,0,0,0,.507,1.383,1.661,1.661,0,0,0,1.246.5,1.692,1.692,0,0,0,1.257-.5,1.882,1.882,0,0,0,.5-1.383V24.8h1.3v5.869a3.081,3.081,0,0,1-5.215,2.222,2.914,2.914,0,0,1-.9-2.22Z" transform="translate(-29.297 -13.448)" fill="#9ea1a2"/>
    <path id="Path_12" data-name="Path 12" d="M73.871,24.8h3.361a2.6,2.6,0,0,1,1.753.584,2.4,2.4,0,0,1,.852,1.894,2.469,2.469,0,0,1-1.66,2.459l1.99,3.939H78.619l-1.778-3.794H75.172v3.794h-1.3Zm1.3,3.89h1.975a1.37,1.37,0,0,0,1.46-1.416,1.2,1.2,0,0,0-.431-1.007,1.466,1.466,0,0,0-.958-.275H75.172Z" transform="translate(-35.004 -13.447)" fill="#9ea1a2"/>
    <path id="Path_13" data-name="Path 13" d="M86.891,24.8h3.117a4.76,4.76,0,0,1,.979.1,2.615,2.615,0,0,1,.957.523,2.135,2.135,0,0,1,.66.852,2.825,2.825,0,0,1,.263,1.265,2.746,2.746,0,0,1-.672,1.8,2.506,2.506,0,0,1-2.018.876H88.192v3.464h-1.3Zm1.3,4.147h1.933a1.354,1.354,0,0,0,1.094-.465,1.541,1.541,0,0,0,.348-.979,1.779,1.779,0,0,0-.141-.752,1.118,1.118,0,0,0-.413-.433,1.6,1.6,0,0,0-.936-.251H88.192Z" transform="translate(-40.419 -13.448)" fill="#9ea1a2"/>
    <path id="Path_14" data-name="Path 14" d="M92.221,19.429h1.3v7.61h4.192V28.3H92.221Z" transform="translate(-38.359 -8.08)" fill="#9ea1a2"/>
    <path id="Path_15" data-name="Path 15" d="M104.094,19.429h5.491V20.7h-4.191v2.538h3.578v1.193h-3.578v2.613h4.191V28.3h-5.491Z" transform="translate(-43.297 -8.08)" fill="#9ea1a2"/>
    <path id="Path_16" data-name="Path 16" d="M0,37.581H5.492v1.267H1.3v2.539H4.879V42.58H1.3v2.611h4.19v1.266H0Z" transform="translate(0 -15.63)" fill="#9ea1a2"/>
    <path id="Path_17" data-name="Path 17" d="M13.465,43.154l-1.887,3.3H10.111l2.629-4.549-2.464-4.328H11.75l1.714,3.078,1.716-3.078h1.467l-2.539,4.328,2.711,4.549H15.345Z" transform="translate(-4.206 -15.63)" fill="#9ea1a2"/>
    <path id="Path_18" data-name="Path 18" d="M28.032,42.579H24.62v3.879h-1.3V37.581h1.3v3.806h3.411V37.581h1.3v8.877h-1.3Z" transform="translate(-9.7 -15.63)" fill="#9ea1a2"/>
    <rect id="Rectangle_75" data-name="Rectangle 75" width="1.302" height="8.876" transform="translate(21.697 21.951)" fill="#9ea1a2"/>
    <path id="Path_19" data-name="Path 19" d="M49.977,42.945H53.31a2.61,2.61,0,0,1,1.9.658,2.347,2.347,0,0,1,.642,1.723,2.116,2.116,0,0,1-.253,1.046,1.655,1.655,0,0,1-.39.451,2.748,2.748,0,0,1-.625.406v.026a1.737,1.737,0,0,1,1.064.761,2.559,2.559,0,0,1,.337,1.286,2.461,2.461,0,0,1-.7,1.819,2.26,2.26,0,0,1-1.692.7H49.977Zm1.3,1.193v2.553h1.883a1.319,1.319,0,0,0,1.05-.388,1.23,1.23,0,0,0,.343-.892,1.3,1.3,0,0,0-.343-.913,1.442,1.442,0,0,0-1.05-.361Zm0,3.745v2.673h2.009a1.351,1.351,0,0,0,1.065-.409,1.38,1.38,0,0,0,.335-.929,1.4,1.4,0,0,0-.335-.94,1.385,1.385,0,0,0-1.065-.4Z" transform="translate(-25.065 -20.995)" fill="#9ea1a2"/>
    <rect id="Rectangle_76" data-name="Rectangle 76" width="1.3" height="8.876" transform="translate(32.517 21.951)" fill="#9ea1a2"/>
    <path id="Path_20" data-name="Path 20" d="M62,38.776H59.644V37.583h6.017v1.193H63.3v7.683H62Z" transform="translate(-24.808 -15.631)" fill="#9ea1a2"/>
    <rect id="Rectangle_77" data-name="Rectangle 77" width="1.3" height="8.876" transform="translate(41.965 21.951)" fill="#9ea1a2"/>
    <path id="Path_21" data-name="Path 21" d="M84.172,47.335a15.478,15.478,0,0,1,.088-2.075,2.483,2.483,0,0,1,.29-.848,3.018,3.018,0,0,1,1-1.093,2.907,2.907,0,0,1,1.693-.5,2.949,2.949,0,0,1,2.688,1.6,2.093,2.093,0,0,1,.3.846,17.664,17.664,0,0,1,.078,2.07,17.726,17.726,0,0,1-.078,2.058,2.105,2.105,0,0,1-.3.857,2.853,2.853,0,0,1-.979,1.085,3.007,3.007,0,0,1-1.709.511,3.086,3.086,0,0,1-2.695-1.6q-.092-.2-.171-.383a2.67,2.67,0,0,1-.117-.473,15.472,15.472,0,0,1-.088-2.058m1.3,0a10.823,10.823,0,0,0,.093,1.775,1.716,1.716,0,0,0,1.671,1.4,1.568,1.568,0,0,0,.81-.2,1.426,1.426,0,0,0,.521-.446,1.588,1.588,0,0,0,.349-.749,11.571,11.571,0,0,0,.087-1.775,11.852,11.852,0,0,0-.087-1.788,1.584,1.584,0,0,0-.349-.737,1.558,1.558,0,0,0-.521-.458,1.844,1.844,0,0,0-.81-.189,1.752,1.752,0,0,0-.791.189,1.621,1.621,0,0,0-.542.458,1.491,1.491,0,0,0-.338.737,11.089,11.089,0,0,0-.093,1.788" transform="translate(-39.286 -20.946)" fill="#9ea1a2"/>
    <path id="Path_22" data-name="Path 22" d="M90.372,37.581H91.6l3.893,6.31h.025v-6.31h1.3v8.877H95.585L91.7,40.149h-.023v6.309h-1.3Z" transform="translate(-37.59 -15.63)" fill="#9ea1a2"/>
    <path id="Path_23" data-name="Path 23" d="M111.874,49.621a3.705,3.705,0,0,0,2.443.883q1.677-.024,1.7-1.237c.008-.662-.365-1.061-1.12-1.193l-1.139-.165a2.777,2.777,0,0,1-1.686-.847,2.408,2.408,0,0,1-.6-1.645,2.474,2.474,0,0,1,.75-1.877,2.868,2.868,0,0,1,2.056-.719,4.731,4.731,0,0,1,2.787.917l-.726,1.1a3.856,3.856,0,0,0-2.13-.683,1.588,1.588,0,0,0-1,.311,1.175,1.175,0,0,0-.431.963,1,1,0,0,0,.289.7,1.642,1.642,0,0,0,.927.438c.236.041.559.087.967.139a2.648,2.648,0,0,1,1.786.9,2.564,2.564,0,0,1,.572,1.657q-.066,2.548-3.017,2.584a4.792,4.792,0,0,1-3.281-1.211Z" transform="translate(-50.455 -20.944)" fill="#9ea1a2"/>
    <path id="Path_24" data-name="Path 24" d="M11.658,55.26h5.491v1.266h-4.19v2.538h3.576v1.193H12.959v2.612h4.19v1.267H11.658Z" transform="translate(-4.849 -22.984)" fill="#9ea1a2"/>
    <path id="Path_25" data-name="Path 25" d="M25.122,60.832l-1.887,3.3H21.768L24.4,59.588,21.932,55.26h1.475l1.715,3.078,1.715-3.078h1.468l-2.539,4.328,2.71,4.547H27Z" transform="translate(-9.054 -22.984)" fill="#9ea1a2"/>
    <path id="Path_26" data-name="Path 26" d="M34.977,55.26h5.492v1.266H36.278v2.538h3.577v1.193H36.278v2.612h4.191v1.267H34.977Z" transform="translate(-14.548 -22.984)" fill="#9ea1a2"/>
    <path id="Path_27" data-name="Path 27" d="M59.758,66.97a3.334,3.334,0,0,1-1.079,1.9,3.01,3.01,0,0,1-1.942.657,2.961,2.961,0,0,1-1.691-.511,2.926,2.926,0,0,1-1-1.084c-.063-.134-.12-.262-.171-.385a2.454,2.454,0,0,1-.117-.475,14.992,14.992,0,0,1-.091-2.057,14.986,14.986,0,0,1,.091-2.071,2.468,2.468,0,0,1,.288-.845,3.041,3.041,0,0,1,1-1.1,2.884,2.884,0,0,1,1.693-.5,2.851,2.851,0,0,1,2.028.76,3.359,3.359,0,0,1,.991,1.865h-1.38a1.986,1.986,0,0,0-.58-.914,1.674,1.674,0,0,0-1.063-.371,1.728,1.728,0,0,0-.792.189,1.632,1.632,0,0,0-.543.457,1.52,1.52,0,0,0-.337.738,11.237,11.237,0,0,0-.093,1.788,10.874,10.874,0,0,0,.094,1.775,1.657,1.657,0,0,0,.883,1.2,1.48,1.48,0,0,0,.789.2,1.752,1.752,0,0,0,1.643-1.214Z" transform="translate(-26.597 -28.299)" fill="#9ea1a2"/>
    <path id="Path_28" data-name="Path 28" d="M65.77,60.628h1.3v5.727a1.857,1.857,0,0,0,.507,1.383,1.664,1.664,0,0,0,1.247.5,1.693,1.693,0,0,0,1.257-.5,1.884,1.884,0,0,0,.5-1.383V60.628h1.3V66.5a3.08,3.08,0,0,1-5.213,2.222,2.93,2.93,0,0,1-.9-2.221Z" transform="translate(-31.633 -28.352)" fill="#9ea1a2"/>
    <path id="Path_29" data-name="Path 29" d="M72.99,56.453H70.632V55.26h6.017v1.193h-2.36v7.683h-1.3Z" transform="translate(-29.379 -22.984)" fill="#9ea1a2"/>
    <rect id="Rectangle_78" data-name="Rectangle 78" width="1.302" height="8.876" transform="translate(48.382 32.276)" fill="#9ea1a2"/>
    <path id="Path_30" data-name="Path 30" d="M95.162,65.013a15.082,15.082,0,0,1,.09-2.074,2.48,2.48,0,0,1,.289-.849,3.032,3.032,0,0,1,1-1.093,2.9,2.9,0,0,1,1.692-.5,2.931,2.931,0,0,1,1.709.5,2.965,2.965,0,0,1,.979,1.1,2.1,2.1,0,0,1,.3.847,17.925,17.925,0,0,1,.076,2.069,18.015,18.015,0,0,1-.076,2.058,2.106,2.106,0,0,1-.3.857,2.863,2.863,0,0,1-.979,1.085,3,3,0,0,1-1.709.511,3.091,3.091,0,0,1-2.695-1.6c-.061-.133-.118-.261-.17-.384a2.413,2.413,0,0,1-.117-.473,15.1,15.1,0,0,1-.09-2.058m1.3,0a10.722,10.722,0,0,0,.094,1.775,1.716,1.716,0,0,0,1.671,1.4,1.564,1.564,0,0,0,.809-.2,1.421,1.421,0,0,0,.52-.446,1.573,1.573,0,0,0,.349-.749A11.476,11.476,0,0,0,100,65.013a11.76,11.76,0,0,0-.088-1.789,1.868,1.868,0,0,0-.869-1.195,1.848,1.848,0,0,0-.809-.189,1.754,1.754,0,0,0-.791.189,1.644,1.644,0,0,0-.543.458,1.483,1.483,0,0,0-.338.737,10.988,10.988,0,0,0-.094,1.789" transform="translate(-43.857 -28.299)" fill="#9ea1a2"/>
    <path id="Path_31" data-name="Path 31" d="M101.363,55.26h1.227l3.894,6.309h.022V55.26h1.3v8.876h-1.235l-3.887-6.309h-.023v6.309h-1.3Z" transform="translate(-42.161 -22.984)" fill="#9ea1a2"/>
    <path id="Path_32" data-name="Path 32" d="M22.973,84.484a2.347,2.347,0,0,1-.349-.022.985.985,0,0,1-.235-.064.517.517,0,0,1-.15-.093.566.566,0,0,1-.1-.109V84.4a2.074,2.074,0,0,1-.121.748,1.271,1.271,0,0,1-.354.509,1.44,1.44,0,0,1-.569.293,2.919,2.919,0,0,1-.773.093,2.068,2.068,0,0,1-1.363-.384,1.484,1.484,0,0,1-.457-1.206V83.436h.562v.911a1.628,1.628,0,0,0,.079.539.831.831,0,0,0,.237.355.93.93,0,0,0,.4.2,2.226,2.226,0,0,0,.559.061,3.024,3.024,0,0,0,.57-.047.843.843,0,0,0,.384-.173.69.69,0,0,0,.216-.337,1.814,1.814,0,0,0,.069-.544V82.264h.564v.942a1.673,1.673,0,0,0,.023.3.528.528,0,0,0,.094.229.445.445,0,0,0,.2.147.924.924,0,0,0,.335.053h.087a4.162,4.162,0,0,1,.21-.5,3.628,3.628,0,0,1,.293-.482,3.282,3.282,0,0,1,.373-.435,2.653,2.653,0,0,1,.45-.355,2.341,2.341,0,0,1,.516-.239,1.914,1.914,0,0,1,.582-.087,1.633,1.633,0,0,1,.591.1,1.223,1.223,0,0,1,.443.3,1.277,1.277,0,0,1,.275.478,1.987,1.987,0,0,1,.1.647v1.118Zm3.167-.548v-.491a1.761,1.761,0,0,0-.051-.441.841.841,0,0,0-.162-.333.74.74,0,0,0-.287-.213,1.086,1.086,0,0,0-.424-.075,1.294,1.294,0,0,0-.406.065,1.623,1.623,0,0,0-.366.176,2.011,2.011,0,0,0-.326.263,2.722,2.722,0,0,0-.277.321,2.928,2.928,0,0,0-.384.727Zm-1.267-3.117a.327.327,0,0,1,.029-.135.333.333,0,0,1,.076-.112.351.351,0,0,1,.111-.075.344.344,0,0,1,.138-.027.332.332,0,0,1,.135.027.382.382,0,0,1,.112.075.35.35,0,0,1,.075.384.35.35,0,0,1-.187.187.333.333,0,0,1-.135.029.345.345,0,0,1-.138-.029.359.359,0,0,1-.188-.187.327.327,0,0,1-.029-.137" transform="translate(-11.971 -36.605)" fill="#722282"/>
    <path id="Path_33" data-name="Path 33" d="M34.324,82.978h.563v2.355a5.2,5.2,0,0,1-.055.816,1.35,1.35,0,0,1-.192.543.772.772,0,0,1-.381.3,1.7,1.7,0,0,1-.614.093h-.2v-.548h.22a.752.752,0,0,0,.369-.075.442.442,0,0,0,.2-.23,1.31,1.31,0,0,0,.079-.4c.009-.161.014-.355.014-.577Z" transform="translate(-18.19 -37.648)" fill="#722282"/>
    <path id="Path_34" data-name="Path 34" d="M38.773,83.691a.309.309,0,0,1-.06.224.286.286,0,0,1-.2.06h-.1a1.526,1.526,0,0,1-.386-.044.712.712,0,0,1-.3-.15.7.7,0,0,1-.194-.284,1.2,1.2,0,0,1-.07-.438V79.245h.563v3.67a1.2,1.2,0,0,0,.019.235.32.32,0,0,0,.069.157.283.283,0,0,0,.144.09.8.8,0,0,0,.242.028h.013a.226.226,0,0,1,.261.266" transform="translate(-19.86 -36.096)" fill="#722282"/>
    <path id="Path_35" data-name="Path 35" d="M39.063,85.462a.275.275,0,0,1-.2-.064.269.269,0,0,1-.064-.2.3.3,0,0,1,.063-.224.276.276,0,0,1,.2-.061h.358a3.833,3.833,0,0,0,.5-.033,2.954,2.954,0,0,0,.47-.106l-.853-.941a1.25,1.25,0,0,1,.05-.152,1.44,1.44,0,0,1,.067-.157c.023-.052.048-.1.072-.141a.484.484,0,0,1,.076-.1,1.53,1.53,0,0,1,.522-.338,1.8,1.8,0,0,1,.667-.125,1.671,1.671,0,0,1,.512.07,1.191,1.191,0,0,1,.366.187.783.783,0,0,1,.219.263.669.669,0,0,1,.072.3,1.087,1.087,0,0,1-.058.352,1.427,1.427,0,0,1-.164.329,1.872,1.872,0,0,1-.25.3,2.563,2.563,0,0,1-.32.265.822.822,0,0,0,.156.022c.055,0,.114,0,.177,0h.842a.287.287,0,0,1,.2.063.274.274,0,0,1,.063.2.309.309,0,0,1-.06.224.287.287,0,0,1-.2.062H41.523a1.369,1.369,0,0,1-.37-.05.979.979,0,0,1-.365-.216,4.13,4.13,0,0,1-.65.194,3.37,3.37,0,0,1-.691.072Zm1.9-2.111a1.268,1.268,0,0,0-.259.027,1.359,1.359,0,0,0-.24.076,1.313,1.313,0,0,0-.209.116,1.083,1.083,0,0,0-.167.146l.809.858a2.025,2.025,0,0,0,.29-.176,1.235,1.235,0,0,0,.222-.2,1.065,1.065,0,0,0,.147-.226.615.615,0,0,0,.05-.239.283.283,0,0,0-.039-.143.39.39,0,0,0-.119-.122.724.724,0,0,0-.2-.084,1.2,1.2,0,0,0-.284-.03" transform="translate(-20.415 -37.581)" fill="#722282"/>
    <path id="Path_36" data-name="Path 36" d="M48.1,85.132a1,1,0,0,1-.392.394,1.293,1.293,0,0,1-.629.14,1.7,1.7,0,0,1-.272-.022,1.522,1.522,0,0,1-.29-.074,2.33,2.33,0,0,1-.316-.144,2.8,2.8,0,0,1-.349-.228.984.984,0,0,1-.172.209.626.626,0,0,1-.173.115.607.607,0,0,1-.188.045,1.758,1.758,0,0,1-.219.01h-.071a.283.283,0,0,1-.2-.063.273.273,0,0,1-.064-.2.3.3,0,0,1,.063-.225.285.285,0,0,1,.2-.059h.058a.679.679,0,0,0,.159-.021.374.374,0,0,0,.155-.082.631.631,0,0,0,.148-.183,1.3,1.3,0,0,0,.13-.319,2.517,2.517,0,0,1,.284-.66,1.655,1.655,0,0,1,.357-.408,1.118,1.118,0,0,1,.391-.2,1.481,1.481,0,0,1,.379-.056,1.2,1.2,0,0,1,.476.091,1.057,1.057,0,0,1,.375.253,1.207,1.207,0,0,1,.244.4,1.454,1.454,0,0,1,.087.511c0,.043,0,.084,0,.126s-.007.082-.012.123a.7.7,0,0,0,.188.319.4.4,0,0,0,.277.112.272.272,0,0,1,.2.062.277.277,0,0,1,.063.2.312.312,0,0,1-.061.225.273.273,0,0,1-.2.06.624.624,0,0,1-.344-.1.8.8,0,0,1-.278-.342m-.394-.724a1.094,1.094,0,0,0-.042-.314.686.686,0,0,0-.124-.239.565.565,0,0,0-.2-.157.7.7,0,0,0-.279-.054.749.749,0,0,0-.3.062.765.765,0,0,0-.259.2,1.324,1.324,0,0,0-.216.342,2.7,2.7,0,0,0-.168.5,1.736,1.736,0,0,0,.464.268,1.287,1.287,0,0,0,.467.092.679.679,0,0,0,.482-.161.7.7,0,0,0,.176-.534" transform="translate(-22.896 -37.698)" fill="#722282"/>
    <path id="Path_37" data-name="Path 37" d="M51.349,83.975a.275.275,0,0,1-.2-.063.268.268,0,0,1-.064-.2.3.3,0,0,1,.064-.224.275.275,0,0,1,.2-.061h.812v-4.18h.564v4.73Z" transform="translate(-25.525 -36.096)" fill="#722282"/>
    <rect id="Rectangle_79" data-name="Rectangle 79" width="0.564" height="4.73" transform="translate(28.107 43.15)" fill="#722282"/>
    <path id="Path_38" data-name="Path 38" d="M65.97,84.765H61.955a3.4,3.4,0,0,1-.641-.051,1,1,0,0,1-.414-.17.61.61,0,0,1-.219-.3,1.364,1.364,0,0,1-.066-.448V82.773h.563V83.6a.878.878,0,0,0,.048.325.349.349,0,0,0,.17.186.884.884,0,0,0,.326.085c.138.013.312.019.524.019h3.161v-2h.563Zm-3.42-3.27a.339.339,0,0,1,.027-.135.333.333,0,0,1,.077-.11.383.383,0,0,1,.111-.078.345.345,0,0,1,.138-.026.338.338,0,0,1,.135.026.38.38,0,0,1,.112.078.329.329,0,0,1,.076.11.34.34,0,0,1,.028.135.35.35,0,0,1-.1.249.356.356,0,0,1-.112.075.318.318,0,0,1-.135.027.325.325,0,0,1-.138-.027.357.357,0,0,1-.111-.075.339.339,0,0,1-.077-.112.335.335,0,0,1-.027-.137m.86,0a.33.33,0,0,1,.028-.135.334.334,0,0,1,.075-.11.378.378,0,0,1,.113-.078.344.344,0,0,1,.138-.026.34.34,0,0,1,.135.026.379.379,0,0,1,.112.078.336.336,0,0,1,.075.11.355.355,0,0,1,0,.272.343.343,0,0,1-.075.112.355.355,0,0,1-.112.075.32.32,0,0,1-.135.027.324.324,0,0,1-.138-.027.354.354,0,0,1-.113-.075.341.341,0,0,1-.075-.112.326.326,0,0,1-.028-.137" transform="translate(-29.49 -36.886)" fill="#722282"/>
    <path id="Path_39" data-name="Path 39" d="M72.645,83.691a.308.308,0,0,1-.061.224.284.284,0,0,1-.2.06h-.1a1.52,1.52,0,0,1-.385-.044.708.708,0,0,1-.3-.15A.692.692,0,0,1,71.4,83.5a1.194,1.194,0,0,1-.071-.438V79.245H71.9v3.67a1.319,1.319,0,0,0,.018.235.325.325,0,0,0,.069.157.278.278,0,0,0,.146.09.782.782,0,0,0,.239.028h.014a.227.227,0,0,1,.261.266" transform="translate(-33.948 -36.096)" fill="#722282"/>
    <path id="Path_40" data-name="Path 40" d="M75.673,85.46v.026a.848.848,0,0,1,.107.174.925.925,0,0,1,.059.167.887.887,0,0,1,.028.154c0,.049.007.095.007.138a1.061,1.061,0,0,1-.065.369.85.85,0,0,1-.2.31.941.941,0,0,1-.324.213,1.212,1.212,0,0,1-.455.08,1.381,1.381,0,0,1-.578-.106.982.982,0,0,1-.375-.28,1.118,1.118,0,0,1-.2-.414,2.091,2.091,0,0,1-.06-.5V85.46h-.686a.273.273,0,0,1-.2-.063.269.269,0,0,1-.064-.2.3.3,0,0,1,.062-.224.281.281,0,0,1,.2-.061h.686v-.385a2.819,2.819,0,0,1,.085-.723,1.586,1.586,0,0,1,.243-.538,1.086,1.086,0,0,1,.384-.333,1.138,1.138,0,0,1,.516-.114,1.035,1.035,0,0,1,.493.1.966.966,0,0,1,.319.265,1.067,1.067,0,0,1,.176.349,1.338,1.338,0,0,1,.054.349,1.481,1.481,0,0,1-.032.31,1.3,1.3,0,0,1-.09.265,1.242,1.242,0,0,1-.134.229,1.713,1.713,0,0,1-.168.2v.026h.9a.281.281,0,0,1,.2.063.274.274,0,0,1,.065.2.3.3,0,0,1-.062.224.285.285,0,0,1-.2.06Zm-1.508-.55h.3a.851.851,0,0,0,.708-.333,1.007,1.007,0,0,0,.154-.3,1.115,1.115,0,0,0,.048-.3.8.8,0,0,0-.046-.276.564.564,0,0,0-.116-.194.454.454,0,0,0-.17-.115.526.526,0,0,0-.2-.037.553.553,0,0,0-.5.289,1.6,1.6,0,0,0-.177.831Zm0,.55v.127a3.112,3.112,0,0,0,.023.389.946.946,0,0,0,.1.314.529.529,0,0,0,.2.207.687.687,0,0,0,.341.076.56.56,0,0,0,.412-.138.523.523,0,0,0,.137-.385.763.763,0,0,0-.007-.1.552.552,0,0,0-.036-.126.579.579,0,0,0-.073-.129.521.521,0,0,0-.128-.115.637.637,0,0,0-.2-.084.991.991,0,0,0-.28-.034Z" transform="translate(-34.504 -37.581)" fill="#722282"/>
    <path id="Path_41" data-name="Path 41" d="M81.47,84.911a2,2,0,0,0-.113-.715,1.232,1.232,0,0,0-.3-.474,1.135,1.135,0,0,0-.449-.265,1.787,1.787,0,0,0-.548-.082c-.066,0-.133,0-.2.009s-.138.016-.205.026-.13.024-.192.038-.115.027-.162.039v-.53c.087-.028.205-.057.349-.091a2.212,2.212,0,0,1,.48-.049,1.971,1.971,0,0,1,.866.173,1.646,1.646,0,0,1,.6.467,1.9,1.9,0,0,1,.34.687,3.044,3.044,0,0,1,.109.831v.486H78.813a.231.231,0,0,1-.265-.266.3.3,0,0,1,.063-.224.277.277,0,0,1,.2-.061Zm-1.612,1.544a.336.336,0,0,1,.028-.135.348.348,0,0,1,.076-.112.363.363,0,0,1,.111-.075.348.348,0,0,1,.138-.028.339.339,0,0,1,.134.028.381.381,0,0,1,.112.075.335.335,0,0,1,.075.112.318.318,0,0,1,.028.135.309.309,0,0,1-.028.136.331.331,0,0,1-.075.112.368.368,0,0,1-.112.075.32.32,0,0,1-.134.029.329.329,0,0,1-.138-.029.351.351,0,0,1-.111-.075.344.344,0,0,1-.076-.112.326.326,0,0,1-.028-.136" transform="translate(-36.948 -37.581)" fill="#722282"/>
    <rect id="Rectangle_80" data-name="Rectangle 80" width="0.563" height="4.73" transform="translate(45.901 43.15)" fill="#722282"/>
    <path id="Path_42" data-name="Path 42" d="M90.867,85.462a2.277,2.277,0,0,1-.146.7,1.212,1.212,0,0,1-.349.485,1.477,1.477,0,0,1-.575.285,3.251,3.251,0,0,1-.83.092h-.278v-.548h.2a3.119,3.119,0,0,0,.661-.06,1.146,1.146,0,0,0,.439-.182.743.743,0,0,0,.247-.316,1.3,1.3,0,0,0,.084-.455h-.749a1.776,1.776,0,0,1-.5-.069,1.092,1.092,0,0,1-.4-.213.965.965,0,0,1-.265-.376,1.414,1.414,0,0,1-.1-.553,1.641,1.641,0,0,1,.088-.532,1.429,1.429,0,0,1,.258-.458,1.273,1.273,0,0,1,.412-.321,1.2,1.2,0,0,1,.551-.122,1.269,1.269,0,0,1,.586.122,1.01,1.01,0,0,1,.385.347,1.588,1.588,0,0,1,.215.545,3.579,3.579,0,0,1,.066.711v.37h.466a.28.28,0,0,1,.2.061.276.276,0,0,1,.065.2.308.308,0,0,1-.063.224.283.283,0,0,1-.2.062ZM88.846,84.2a.693.693,0,0,0,.2.525.783.783,0,0,0,.569.192h.709v-.5a2.37,2.37,0,0,0-.038-.441,1,1,0,0,0-.127-.34.6.6,0,0,0-.227-.217.718.718,0,0,0-.343-.076.667.667,0,0,0-.559.274.841.841,0,0,0-.137.272,1.088,1.088,0,0,0-.046.308" transform="translate(-41.012 -37.581)" fill="#722282"/>
    <path id="Path_43" data-name="Path 43" d="M93.312,83.975a.276.276,0,0,1-.2-.063.271.271,0,0,1-.064-.2.3.3,0,0,1,.063-.224.278.278,0,0,1,.2-.061h.812v-4.18h.563v4.73Z" transform="translate(-42.979 -36.096)" fill="#722282"/>
    <path id="Path_44" data-name="Path 44" d="M103.7,83.975a1.948,1.948,0,0,1-.139.711,1.256,1.256,0,0,1-.358.486,1.49,1.49,0,0,1-.563.275,3.042,3.042,0,0,1-.756.087,2.39,2.39,0,0,1-.793-.119,1.523,1.523,0,0,1-.569-.343,1.435,1.435,0,0,1-.345-.542,2.137,2.137,0,0,1-.114-.716v-.887h.563V83.7a1.341,1.341,0,0,0,.314.967,1.278,1.278,0,0,0,.959.325,1.964,1.964,0,0,0,.569-.071.875.875,0,0,0,.384-.218.856.856,0,0,0,.218-.385,2.026,2.026,0,0,0,.068-.566V79.245h.563v4.18h.592a.284.284,0,0,1,.2.063.274.274,0,0,1,.065.2.3.3,0,0,1-.063.224.284.284,0,0,1-.2.06Z" transform="translate(-45.897 -36.096)" fill="#722282"/>
    <path id="Path_45" data-name="Path 45" d="M107.113,85.529a.274.274,0,0,1-.2-.064.27.27,0,0,1-.065-.2.314.314,0,0,1,.062-.224.293.293,0,0,1,.2-.059h1.012v-2h.563v2.551Zm.841.985a.322.322,0,0,1,.028-.135.336.336,0,0,1,.076-.111.322.322,0,0,1,.112-.076.346.346,0,0,1,.383.076.317.317,0,0,1,.075.111.313.313,0,0,1,.028.135.32.32,0,0,1-.028.138.331.331,0,0,1-.075.111.325.325,0,0,1-.112.074.339.339,0,0,1-.271,0,.31.31,0,0,1-.112-.075.352.352,0,0,1-.076-.111.328.328,0,0,1-.028-.138" transform="translate(-48.719 -37.648)" fill="#722282"/>
    <path id="Path_46" data-name="Path 46" d="M113.038,85.527a.8.8,0,0,1-.188-.022.865.865,0,0,1-.173-.061.732.732,0,0,1-.143-.091.346.346,0,0,1-.1-.115,5.188,5.188,0,0,1-.057.8,1.665,1.665,0,0,1-.194.578.881.881,0,0,1-.38.351,1.405,1.405,0,0,1-.613.117H111v-.549h.22a.79.79,0,0,0,.381-.074.433.433,0,0,0,.2-.23,1.258,1.258,0,0,0,.073-.4c.008-.16.012-.352.012-.577V82.978h.563V84.25a1.3,1.3,0,0,0,.031.3.655.655,0,0,0,.1.229.467.467,0,0,0,.183.147.677.677,0,0,0,.277.051.285.285,0,0,1,.2.063.276.276,0,0,1,.065.2.3.3,0,0,1-.062.224.289.289,0,0,1-.205.06" transform="translate(-50.446 -37.648)" fill="#722282"/>
    <path id="Path_47" data-name="Path 47" d="M114.3,85.527a.284.284,0,0,1-.2-.063.272.272,0,0,1-.064-.2.3.3,0,0,1,.064-.224.272.272,0,0,1,.2-.061h.5a1.646,1.646,0,0,0,.219-.013.379.379,0,0,0,.17-.062.3.3,0,0,0,.108-.146.729.729,0,0,0,.039-.262V82.978h.568V84.25a1.6,1.6,0,0,0,.029.3.618.618,0,0,0,.1.229.457.457,0,0,0,.183.147.727.727,0,0,0,.291.051.279.279,0,0,1,.2.063.271.271,0,0,1,.066.2.307.307,0,0,1-.064.225.285.285,0,0,1-.2.059.79.79,0,0,1-.215-.028.822.822,0,0,1-.2-.076.737.737,0,0,1-.159-.117.524.524,0,0,1-.109-.148.569.569,0,0,1-.167.192.869.869,0,0,1-.219.114,1.035,1.035,0,0,1-.24.052,2.023,2.023,0,0,1-.235.013Zm.525,1a.328.328,0,0,1,.027-.135.362.362,0,0,1,.075-.112.376.376,0,0,1,.113-.075.308.308,0,0,1,.136-.028.312.312,0,0,1,.137.028.367.367,0,0,1,.111.075.374.374,0,0,1,.076.112.341.341,0,0,1,0,.272.353.353,0,0,1-.076.112.367.367,0,0,1-.111.075.34.34,0,0,1-.137.028.336.336,0,0,1-.136-.028.376.376,0,0,1-.113-.075.342.342,0,0,1-.075-.112.328.328,0,0,1-.027-.137m.86,0a.341.341,0,0,1,.105-.246.352.352,0,0,1,.109-.075.318.318,0,0,1,.139-.028.3.3,0,0,1,.133.028.346.346,0,0,1,.189.187.355.355,0,0,1,0,.272.362.362,0,0,1-.075.112.385.385,0,0,1-.114.075.322.322,0,0,1-.133.028.346.346,0,0,1-.139-.028.351.351,0,0,1-.109-.075.322.322,0,0,1-.078-.112.338.338,0,0,1-.028-.137" transform="translate(-51.71 -37.648)" fill="#722282"/>
    <path id="Path_48" data-name="Path 48" d="M118.071,85.529a.276.276,0,0,1-.2-.064.27.27,0,0,1-.065-.2.307.307,0,0,1,.063-.224.287.287,0,0,1,.2-.059h1.013v-2h.562v2.551Zm.841.985a.313.313,0,0,1,.028-.135.3.3,0,0,1,.075-.111.336.336,0,0,1,.111-.076.355.355,0,0,1,.138-.028.347.347,0,0,1,.135.028.352.352,0,0,1,.112.076.333.333,0,0,1,.075.111.322.322,0,0,1,.027.135.329.329,0,0,1-.027.138.349.349,0,0,1-.075.111.337.337,0,0,1-.112.074.308.308,0,0,1-.135.028.316.316,0,0,1-.138-.028.322.322,0,0,1-.111-.074.307.307,0,0,1-.075-.111.319.319,0,0,1-.028-.138" transform="translate(-53.277 -37.648)" fill="#722282"/>
    <path id="Path_49" data-name="Path 49" d="M132.755,8.363a2.992,2.992,0,1,0-2.993,2.993,2.992,2.992,0,0,0,2.993-2.993" transform="translate(-57.007 -5.368)" fill="#722282"/>
    <path id="Path_50" data-name="Path 50" d="M145.778,8.363a2.992,2.992,0,1,0-2.992,2.993,2.992,2.992,0,0,0,2.992-2.993" transform="translate(-62.424 -5.368)" fill="#722282"/>
    <path id="Path_51" data-name="Path 51" d="M158.8,8.363a2.992,2.992,0,1,0-2.993,2.993A2.992,2.992,0,0,0,158.8,8.363" transform="translate(-67.84 -5.368)" fill="#722282"/>
    <path id="Path_52" data-name="Path 52" d="M171.3,9.666a1.162,1.162,0,1,0-1.161,1.161A1.162,1.162,0,0,0,171.3,9.666" transform="translate(-74.561 -6.671)" fill="#722282"/>
    <path id="Path_53" data-name="Path 53" d="M132.755,20.744a2.992,2.992,0,1,0-2.993,2.993,2.992,2.992,0,0,0,2.993-2.993" transform="translate(-57.007 -10.518)" fill="#722282"/>
    <path id="Path_54" data-name="Path 54" d="M145.635,21.1a2.494,2.494,0,1,0-2.494,2.495,2.494,2.494,0,0,0,2.494-2.495" transform="translate(-62.779 -10.874)" fill="#722282"/>
    <path id="Path_55" data-name="Path 55" d="M158.658,21.1a2.5,2.5,0,1,0-2.5,2.5,2.5,2.5,0,0,0,2.5-2.5" transform="translate(-68.192 -10.87)" fill="#722282"/>
    <path id="Path_56" data-name="Path 56" d="M166.162,20.879a2.8,2.8,0,1,0,2.8-2.8,2.8,2.8,0,0,0-2.8,2.8" transform="translate(-73.391 -10.653)" fill="#722282"/>
    <path id="Path_57" data-name="Path 57" d="M132.755,33.127a2.992,2.992,0,1,0-2.993,2.993,2.992,2.992,0,0,0,2.993-2.993" transform="translate(-57.007 -15.668)" fill="#722282"/>
    <path id="Path_58" data-name="Path 58" d="M145.525,33.746a2.121,2.121,0,1,0-2.12,2.12,2.121,2.121,0,0,0,2.12-2.12" transform="translate(-63.043 -16.288)" fill="#722282"/>
    <path id="Path_59" data-name="Path 59" d="M158.652,33.493a2.477,2.477,0,1,0-2.478,2.478,2.477,2.477,0,0,0,2.478-2.478" transform="translate(-68.207 -16.035)" fill="#722282"/>
    <path id="Path_60" data-name="Path 60" d="M166.12,33.244a2.828,2.828,0,1,0,2.827-2.827,2.828,2.828,0,0,0-2.827,2.827" transform="translate(-73.374 -15.786)" fill="#722282"/>
    <path id="Path_61" data-name="Path 61" d="M184.363,34.323a1.312,1.312,0,1,0-1.314,1.313,1.312,1.312,0,0,0,1.314-1.313" transform="translate(-79.87 -16.865)" fill="#722282"/>
    <path id="Path_62" data-name="Path 62" d="M132.755,45.509a2.992,2.992,0,1,0-2.993,2.993,2.992,2.992,0,0,0,2.993-2.993" transform="translate(-57.007 -20.819)" fill="#722282"/>
    <path id="Path_63" data-name="Path 63" d="M145.512,46.166a2.069,2.069,0,1,0-2.069,2.069,2.069,2.069,0,0,0,2.069-2.069" transform="translate(-63.081 -21.476)" fill="#722282"/>
    <path id="Path_64" data-name="Path 64" d="M158.627,45.933a2.4,2.4,0,1,0-2.4,2.4,2.4,2.4,0,0,0,2.4-2.4" transform="translate(-68.264 -21.243)" fill="#722282"/>
    <path id="Path_65" data-name="Path 65" d="M171.446,46.443a1.68,1.68,0,1,0-1.68,1.68,1.68,1.68,0,0,0,1.68-1.68" transform="translate(-74.191 -21.753)" fill="#722282"/>
    <path id="Path_66" data-name="Path 66" d="M132.755,57.891a2.992,2.992,0,1,0-2.993,2.993,2.992,2.992,0,0,0,2.993-2.993" transform="translate(-57.007 -25.969)" fill="#722282"/>
    <path id="Path_67" data-name="Path 67" d="M142.288,58.929a1.536,1.536,0,1,0,1.535-1.535,1.536,1.536,0,0,0-1.535,1.535" transform="translate(-63.461 -27.007)" fill="#722282"/>
    <path id="Path_68" data-name="Path 68" d="M158.3,59.124a1.26,1.26,0,1,0-1.26,1.26,1.26,1.26,0,0,0,1.26-1.26" transform="translate(-69.073 -27.202)" fill="#722282"/>
    <path id="Path_69" data-name="Path 69" d="M132.755,70.274a2.992,2.992,0,1,0-2.993,2.993,2.992,2.992,0,0,0,2.993-2.993" transform="translate(-57.007 -31.119)" fill="#722282"/>
    <path id="Path_70" data-name="Path 70" d="M145.4,71.208a1.68,1.68,0,1,0-1.68,1.68,1.68,1.68,0,0,0,1.68-1.68" transform="translate(-63.358 -32.054)" fill="#722282"/>
    <path id="Path_71" data-name="Path 71" d="M132.755,82.656a2.992,2.992,0,1,0-2.993,2.993,2.992,2.992,0,0,0,2.993-2.993" transform="translate(-57.007 -36.27)" fill="#722282"/>
    <path id="Path_72" data-name="Path 72" d="M145.105,84.321a.654.654,0,1,0-.654.654.654.654,0,0,0,.654-.654" transform="translate(-64.089 -37.934)" fill="#722282"/>
    <path id="Path_73" data-name="Path 73" d="M184.166,22.425a.654.654,0,1,0-.655.654.654.654,0,0,0,.655-.654" transform="translate(-80.336 -12.19)" fill="#722282"/>
  </g>
</svg>
